<mxfile host="app.diagrams.net" modified="2023-09-25T15:35:50.570Z" agent="Mozilla/5.0 (Macintosh; Intel Mac OS X 10_15_7) AppleWebKit/537.36 (KHTML, like Gecko) Chrome/116.0.0.0 Safari/537.36" etag="xzu7d0UNooPXW4ptLKTi" version="21.8.2" type="github">
  <diagram id="C5RBs43oDa-KdzZeNtuy" name="Page-1">
    <mxGraphModel dx="1942" dy="862" grid="1" gridSize="10" guides="1" tooltips="1" connect="1" arrows="1" fold="1" page="1" pageScale="1" pageWidth="827" pageHeight="1169" math="0" shadow="0">
      <root>
        <mxCell id="WIyWlLk6GJQsqaUBKTNV-0" />
        <mxCell id="WIyWlLk6GJQsqaUBKTNV-1" parent="WIyWlLk6GJQsqaUBKTNV-0" />
        <mxCell id="stVHDZEVp9g0nivzBu3Q-0" value="&lt;h1&gt;Auto Competitors Mapping&lt;/h1&gt;Identifies and maps the top five competitors for each of the 100 leading products across different marketplaces.&lt;p&gt;.&lt;/p&gt;" style="text;html=1;strokeColor=none;fillColor=none;spacing=5;spacingTop=-20;whiteSpace=wrap;overflow=hidden;rounded=0;" parent="WIyWlLk6GJQsqaUBKTNV-1" vertex="1">
          <mxGeometry y="50" width="320" height="90" as="geometry" />
        </mxCell>
        <mxCell id="stVHDZEVp9g0nivzBu3Q-1" value="" style="endArrow=none;html=1;rounded=0;" parent="WIyWlLk6GJQsqaUBKTNV-1" edge="1">
          <mxGeometry width="50" height="50" relative="1" as="geometry">
            <mxPoint x="355" y="585" as="sourcePoint" />
            <mxPoint x="355" y="295" as="targetPoint" />
          </mxGeometry>
        </mxCell>
        <mxCell id="stVHDZEVp9g0nivzBu3Q-2" value="" style="endArrow=none;html=1;rounded=0;" parent="WIyWlLk6GJQsqaUBKTNV-1" edge="1">
          <mxGeometry width="50" height="50" relative="1" as="geometry">
            <mxPoint x="675" y="585" as="sourcePoint" />
            <mxPoint x="675" y="295" as="targetPoint" />
          </mxGeometry>
        </mxCell>
        <mxCell id="stVHDZEVp9g0nivzBu3Q-3" value="" style="endArrow=none;html=1;rounded=0;" parent="WIyWlLk6GJQsqaUBKTNV-1" edge="1">
          <mxGeometry width="50" height="50" relative="1" as="geometry">
            <mxPoint x="965" y="585" as="sourcePoint" />
            <mxPoint x="965" y="295" as="targetPoint" />
          </mxGeometry>
        </mxCell>
        <mxCell id="stVHDZEVp9g0nivzBu3Q-4" value="1. Keywords by ASIN" style="text;html=1;strokeColor=none;fillColor=none;align=left;verticalAlign=middle;whiteSpace=wrap;rounded=0;fontSize=14;fontStyle=1" parent="WIyWlLk6GJQsqaUBKTNV-1" vertex="1">
          <mxGeometry y="200" width="170" height="30" as="geometry" />
        </mxCell>
        <mxCell id="stVHDZEVp9g0nivzBu3Q-9" style="edgeStyle=orthogonalEdgeStyle;rounded=0;orthogonalLoop=1;jettySize=auto;html=1;entryX=0;entryY=0.5;entryDx=0;entryDy=0;" parent="WIyWlLk6GJQsqaUBKTNV-1" source="stVHDZEVp9g0nivzBu3Q-5" target="stVHDZEVp9g0nivzBu3Q-7" edge="1">
          <mxGeometry relative="1" as="geometry" />
        </mxCell>
        <mxCell id="stVHDZEVp9g0nivzBu3Q-5" value="&lt;b&gt;ASIN&lt;/b&gt;" style="rounded=1;whiteSpace=wrap;html=1;strokeWidth=2;fillWeight=4;hachureGap=8;hachureAngle=45;fillColor=#1ba1e2;sketch=1;" parent="WIyWlLk6GJQsqaUBKTNV-1" vertex="1">
          <mxGeometry x="-20" y="405" width="55" height="30" as="geometry" />
        </mxCell>
        <mxCell id="stVHDZEVp9g0nivzBu3Q-11" style="edgeStyle=orthogonalEdgeStyle;rounded=0;orthogonalLoop=1;jettySize=auto;html=1;exitX=0.5;exitY=1;exitDx=0;exitDy=0;entryX=0;entryY=0.5;entryDx=0;entryDy=0;" parent="WIyWlLk6GJQsqaUBKTNV-1" source="stVHDZEVp9g0nivzBu3Q-7" target="stVHDZEVp9g0nivzBu3Q-10" edge="1">
          <mxGeometry relative="1" as="geometry" />
        </mxCell>
        <mxCell id="stVHDZEVp9g0nivzBu3Q-7" value="Amazon SQP&lt;br&gt;Scrape - SF" style="shape=process;whiteSpace=wrap;html=1;backgroundOutline=1;" parent="WIyWlLk6GJQsqaUBKTNV-1" vertex="1">
          <mxGeometry x="35" y="325" width="110" height="50" as="geometry" />
        </mxCell>
        <mxCell id="stVHDZEVp9g0nivzBu3Q-8" value="JungleScout&lt;br&gt;API" style="shape=process;whiteSpace=wrap;html=1;backgroundOutline=1;" parent="WIyWlLk6GJQsqaUBKTNV-1" vertex="1">
          <mxGeometry x="175" y="325" width="110" height="50" as="geometry" />
        </mxCell>
        <mxCell id="stVHDZEVp9g0nivzBu3Q-12" style="edgeStyle=orthogonalEdgeStyle;rounded=0;orthogonalLoop=1;jettySize=auto;html=1;entryX=0.5;entryY=1;entryDx=0;entryDy=0;exitX=1;exitY=0.5;exitDx=0;exitDy=0;" parent="WIyWlLk6GJQsqaUBKTNV-1" source="stVHDZEVp9g0nivzBu3Q-10" target="stVHDZEVp9g0nivzBu3Q-8" edge="1">
          <mxGeometry relative="1" as="geometry" />
        </mxCell>
        <mxCell id="stVHDZEVp9g0nivzBu3Q-13" value="No" style="edgeLabel;html=1;align=center;verticalAlign=middle;resizable=0;points=[];" parent="stVHDZEVp9g0nivzBu3Q-12" vertex="1" connectable="0">
          <mxGeometry x="-0.219" y="4" relative="1" as="geometry">
            <mxPoint x="-11" y="-6" as="offset" />
          </mxGeometry>
        </mxCell>
        <mxCell id="stVHDZEVp9g0nivzBu3Q-10" value="OK" style="rhombus;whiteSpace=wrap;html=1;" parent="WIyWlLk6GJQsqaUBKTNV-1" vertex="1">
          <mxGeometry x="135" y="405" width="45" height="40" as="geometry" />
        </mxCell>
        <mxCell id="stVHDZEVp9g0nivzBu3Q-15" value="2. Keywords Selection" style="text;html=1;strokeColor=none;fillColor=none;align=left;verticalAlign=middle;whiteSpace=wrap;rounded=0;fontSize=14;fontStyle=1" parent="WIyWlLk6GJQsqaUBKTNV-1" vertex="1">
          <mxGeometry x="370" y="200" width="170" height="30" as="geometry" />
        </mxCell>
        <mxCell id="stVHDZEVp9g0nivzBu3Q-16" value="3. Competitors Selection" style="text;html=1;strokeColor=none;fillColor=none;align=left;verticalAlign=middle;whiteSpace=wrap;rounded=0;fontSize=14;fontStyle=1" parent="WIyWlLk6GJQsqaUBKTNV-1" vertex="1">
          <mxGeometry x="687" y="200" width="170" height="30" as="geometry" />
        </mxCell>
        <mxCell id="stVHDZEVp9g0nivzBu3Q-17" value="&lt;b&gt;KEYWORDS&lt;/b&gt;" style="strokeWidth=2;html=1;shape=mxgraph.flowchart.multi-document;whiteSpace=wrap;gradientColor=#009900;" parent="WIyWlLk6GJQsqaUBKTNV-1" vertex="1">
          <mxGeometry x="98.5" y="495" width="118" height="40" as="geometry" />
        </mxCell>
        <mxCell id="stVHDZEVp9g0nivzBu3Q-18" style="edgeStyle=orthogonalEdgeStyle;rounded=0;orthogonalLoop=1;jettySize=auto;html=1;entryX=0.5;entryY=0;entryDx=0;entryDy=0;entryPerimeter=0;" parent="WIyWlLk6GJQsqaUBKTNV-1" source="stVHDZEVp9g0nivzBu3Q-10" target="stVHDZEVp9g0nivzBu3Q-17" edge="1">
          <mxGeometry relative="1" as="geometry" />
        </mxCell>
        <mxCell id="stVHDZEVp9g0nivzBu3Q-19" value="Yes" style="edgeLabel;html=1;align=center;verticalAlign=middle;resizable=0;points=[];" parent="stVHDZEVp9g0nivzBu3Q-18" vertex="1" connectable="0">
          <mxGeometry x="-0.3667" y="-3" relative="1" as="geometry">
            <mxPoint x="-9" as="offset" />
          </mxGeometry>
        </mxCell>
        <mxCell id="stVHDZEVp9g0nivzBu3Q-20" style="edgeStyle=orthogonalEdgeStyle;rounded=0;orthogonalLoop=1;jettySize=auto;html=1;entryX=1;entryY=0.5;entryDx=0;entryDy=0;entryPerimeter=0;exitX=1;exitY=0.5;exitDx=0;exitDy=0;" parent="WIyWlLk6GJQsqaUBKTNV-1" source="stVHDZEVp9g0nivzBu3Q-8" target="stVHDZEVp9g0nivzBu3Q-17" edge="1">
          <mxGeometry relative="1" as="geometry">
            <mxPoint x="265" y="395" as="sourcePoint" />
          </mxGeometry>
        </mxCell>
        <mxCell id="-QlwTN2asBw5_g4uzWNm-0" value="/asins_by_keywords_list" style="text;html=1;strokeColor=none;fillColor=none;align=left;verticalAlign=middle;whiteSpace=wrap;rounded=0;fontStyle=1" vertex="1" parent="WIyWlLk6GJQsqaUBKTNV-1">
          <mxGeometry x="175" y="310" width="170" height="10" as="geometry" />
        </mxCell>
        <mxCell id="-QlwTN2asBw5_g4uzWNm-1" value="Process Description" style="text;html=1;strokeColor=none;fillColor=none;align=center;verticalAlign=middle;whiteSpace=wrap;rounded=0;" vertex="1" parent="WIyWlLk6GJQsqaUBKTNV-1">
          <mxGeometry y="230" width="130" height="30" as="geometry" />
        </mxCell>
        <mxCell id="-QlwTN2asBw5_g4uzWNm-2" value="Process Description" style="text;html=1;strokeColor=none;fillColor=none;align=center;verticalAlign=middle;whiteSpace=wrap;rounded=0;" vertex="1" parent="WIyWlLk6GJQsqaUBKTNV-1">
          <mxGeometry x="360" y="230" width="130" height="30" as="geometry" />
        </mxCell>
        <mxCell id="-QlwTN2asBw5_g4uzWNm-3" value="Process Description" style="text;html=1;strokeColor=none;fillColor=none;align=center;verticalAlign=middle;whiteSpace=wrap;rounded=0;" vertex="1" parent="WIyWlLk6GJQsqaUBKTNV-1">
          <mxGeometry x="680" y="230" width="130" height="30" as="geometry" />
        </mxCell>
      </root>
    </mxGraphModel>
  </diagram>
</mxfile>
